<?xml version="1.0" encoding="UTF-8" standalone="no"?>
<svg
   xmlns:dc="http://purl.org/dc/elements/1.1/"
   xmlns:cc="http://creativecommons.org/ns#"
   xmlns:rdf="http://www.w3.org/1999/02/22-rdf-syntax-ns#"
   xmlns:svg="http://www.w3.org/2000/svg"
   xmlns="http://www.w3.org/2000/svg"
   xmlns:sodipodi="http://sodipodi.sourceforge.net/DTD/sodipodi-0.dtd"
   xmlns:inkscape="http://www.inkscape.org/namespaces/inkscape"
   version="1.1"
   width="100"
   height="100"
   viewBox="0 0 100 100"
   id="svg2"
   inkscape:version="0.48.3.1 r9886"
   sodipodi:docname="noun_project_2181.svg">
  <metadata
     id="metadata14">
    <rdf:RDF>
      <cc:Work
         rdf:about="">
        <dc:format>image/svg+xml</dc:format>
        <dc:type
           rdf:resource="http://purl.org/dc/dcmitype/StillImage" />
        <dc:title></dc:title>
      </cc:Work>
    </rdf:RDF>
  </metadata>
  <defs
     id="defs12" />
  <sodipodi:namedview
     pagecolor="#ffffff"
     bordercolor="#666666"
     borderopacity="1"
     objecttolerance="10"
     gridtolerance="10"
     guidetolerance="10"
     inkscape:pageopacity="0"
     inkscape:pageshadow="2"
     inkscape:window-width="1440"
     inkscape:window-height="876"
     id="namedview10"
     showgrid="false"
     inkscape:zoom="0.295"
     inkscape:cx="-850.56952"
     inkscape:cy="104.79577"
     inkscape:window-x="0"
     inkscape:window-y="24"
     inkscape:window-maximized="1"
     inkscape:current-layer="svg2" />
  <script
     type="text/javascript"
     id="script6">
var metadata = {
	&quot;Designer&quot;: &quot;Anas Ramadan&quot;,
	&quot;Organization&quot;: &quot;RichStyle.org&quot;,
	&quot;Year&quot;: &quot;2012&quot;,
	&quot;Country&quot;: &quot;Syria&quot;,
	&quot;License&quot;: &quot;CC-BY-3.0&quot;
   }
</script>
  <path
     d="M 51.4375 0 A 50 50 0 0 0 0 50 A 50 50 0 0 0 100 50 A 50 50 0 0 0 51.4375 0 z M 72.28125 25.25 L 82.1875 35.15625 L 52.46875 64.84375 L 42.5625 74.75 L 32.6875 64.84375 L 17.8125 50 L 27.71875 40.09375 L 42.5625 54.9375 L 72.28125 25.25 z "
     id="path8" />
  <path
     style="fill:#008000"
     d="M 44.973369,99.432034 C 25.117839,97.355403 8.4772996,83.645881 2.5967469,64.519517 0.89141331,58.972958 0.4308028,55.841907 0.42692975,49.769949 0.41247669,27.111439 15.849124,7.4326386 38.085414,1.7625171 43.650242,0.34351886 52.465775,-0.03307897 57.894996,0.91625555 70.853089,3.1820615 82.175822,10.074662 89.830131,20.356444 c 4.49875,6.043024 8.098149,14.571494 9.315564,22.072446 0.549644,3.386542 0.544237,11.597534 -0.01,15.113483 -0.617131,3.915275 -2.776076,10.689813 -4.519131,14.180534 -7.951225,15.923479 -22.498233,25.934428 -40.318288,27.746203 -2.413466,0.245382 -4.701602,0.420809 -5.084746,0.389839 -0.383148,-0.03097 -2.291241,-0.223076 -4.240212,-0.426915 l 9e-6,0 z M 62.49753,55.00247 82.406932,35.089686 77.330767,30.000259 72.254602,24.910833 57.416297,39.744719 42.577996,54.578606 35.171567,47.163097 27.765139,39.747585 22.780875,44.718864 c -2.741346,2.734204 -4.984265,5.1047 -4.984265,5.267772 0,0.308673 24.202691,24.81669 24.577962,24.888025 0.117453,0.02233 9.172788,-8.920161 20.122958,-19.872191 z"
     id="path2991"
     inkscape:connector-curvature="0" />
</svg>
