<?xml version="1.0" encoding="UTF-8" standalone="no"?>
<!-- Generator: Adobe Illustrator 14.0.0, SVG Export Plug-In . SVG Version: 6.00 Build 43363)  -->

<svg
   xmlns:dc="http://purl.org/dc/elements/1.1/"
   xmlns:cc="http://creativecommons.org/ns#"
   xmlns:rdf="http://www.w3.org/1999/02/22-rdf-syntax-ns#"
   xmlns:svg="http://www.w3.org/2000/svg"
   xmlns="http://www.w3.org/2000/svg"
   xmlns:sodipodi="http://sodipodi.sourceforge.net/DTD/sodipodi-0.dtd"
   xmlns:inkscape="http://www.inkscape.org/namespaces/inkscape"
   version="1.0"
   id="Layer_1"
   x="0px"
   y="0px"
   width="100px"
   height="100px"
   viewBox="0 0 100 100"
   enable-background="new 0 0 100 100"
   xml:space="preserve"
   inkscape:version="0.48.3.1 r9886"
   sodipodi:docname="unresolved.svg"><metadata
   id="metadata9"><rdf:RDF><cc:Work
       rdf:about=""><dc:format>image/svg+xml</dc:format><dc:type
         rdf:resource="http://purl.org/dc/dcmitype/StillImage" /><dc:title></dc:title></cc:Work></rdf:RDF></metadata><defs
   id="defs7" /><sodipodi:namedview
   pagecolor="#ffffff"
   bordercolor="#666666"
   borderopacity="1"
   objecttolerance="10"
   gridtolerance="10"
   guidetolerance="10"
   inkscape:pageopacity="0"
   inkscape:pageshadow="2"
   inkscape:window-width="1375"
   inkscape:window-height="876"
   id="namedview5"
   showgrid="false"
   inkscape:zoom="5.6568543"
   inkscape:cx="108.63144"
   inkscape:cy="51.60214"
   inkscape:window-x="1505"
   inkscape:window-y="24"
   inkscape:window-maximized="1"
   inkscape:current-layer="Layer_1" />
<path
   d="M85.36,14.639C75.918,5.2,63.362,0,50.004,0h-0.061C36.599,0,24.056,5.2,14.619,14.642C5.183,24.084-0.009,36.633,0,49.968  c-0.009,13.363,5.186,25.926,14.629,35.38C24.069,94.797,36.62,100,49.971,100h0.003c13.365,0,25.93-5.202,35.377-14.651  C94.796,75.903,99.999,63.34,100,49.973C99.999,36.625,94.801,24.078,85.36,14.639z M50.004,11.15  c21.42,0,38.848,17.416,38.848,38.822c0,8.471-2.726,16.316-7.345,22.711l-54.2-54.248c6.553-4.731,14.397-7.286,22.637-7.286  H50.004z M22.517,77.467c-7.337-7.343-11.373-17.105-11.365-27.499c-0.008-8.507,2.713-16.603,7.744-23.287l54.361,54.407  c-6.495,4.872-14.558,7.763-23.283,7.763C39.601,88.851,29.851,84.808,22.517,77.467z"
   id="path3" />
<path
   style="fill:#aa0000"
   d="M 44.931826,99.469017 C 24.375048,97.407288 7.1609665,82.551165 1.8173202,62.260275 0.37053924,56.766559 0.01128763,47.326004 1.0264428,41.477286 5.1450386,17.748401 25.870277,0.33898305 50,0.33898305 c 21.358525,0 40.179072,13.53334195 47.173653,33.92128395 2.534139,7.386556 3.144797,17.580284 1.530339,25.546055 C 93.64075,84.788513 70.289856,102.01228 44.931826,99.469017 z M 59.533898,87.881403 c 5.142771,-1.383039 13.771187,-5.652937 13.771187,-6.814873 0,-0.238382 -12.213585,-12.63625 -27.141297,-27.550822 L 19.022489,26.398305 17.96884,27.669492 c -1.675502,2.021428 -4.758484,8.592994 -5.764851,12.288135 -0.77076,2.830047 -0.922081,4.509398 -0.916338,10.169492 0.0062,6.133356 0.115186,7.134949 1.143021,10.506618 2.15922,7.083021 5.588291,12.788526 10.529053,17.518903 5.660417,5.41939 13.360308,9.276691 20.896207,10.468059 2.715729,0.429335 13.164606,-0.06338 15.677966,-0.739296 l 0,0 z M 82.545085,71.631356 c 1.586657,-2.246131 3.900322,-7.311059 5.02514,-11.000712 1.026805,-3.368157 1.135902,-4.371466 1.142122,-10.503525 C 88.71811,44.433314 88.569729,42.80453 87.785814,39.957627 85.043636,29.999016 77.864475,20.827218 68.877864,15.801619 60.585377,11.164195 49.421869,9.7753657 40.042373,12.214253 36.595302,13.110572 29.889735,16.14824 27.966102,17.684888 l -1.059322,0.846213 27.117402,27.132755 c 14.914572,14.923013 27.247987,27.132754 27.407589,27.132754 0.159602,0 0.660593,-0.524364 1.113314,-1.165254 z"
   id="path2986"
   inkscape:connector-curvature="0" /><path
   style="fill:#d40000"
   d="M 46.229264,99.516557 C 34.073584,98.381019 23.55898,93.531382 15.195764,85.203017 9.2127336,79.244919 5.096531,72.443178 2.541616,64.292909 1.0183113,59.433513 0.5473755,55.417211 0.67367939,48.362504 0.73324766,45.035318 0.8512077,42.98049 1.0474615,41.851334 2.8265489,31.615273 7.4377162,22.613948 14.634281,15.328904 17.283109,12.647508 19.469091,10.83514 22.452799,8.8466754 28.874788,4.5667981 35.55286,2.012232 43.312449,0.86722316 45.939039,0.47964222 53.368421,0.4268238 55.951982,0.77736369 67.316807,2.3193531 77.072677,7.0848693 84.956302,14.945305 c 5.028798,5.014007 8.839911,10.843956 11.386963,17.418909 1.349536,3.48369 2.057721,6.235196 2.684437,10.429824 0.457726,3.063588 0.458059,11.68503 5.3e-4,14.584078 -1.359391,8.614107 -4.668725,16.25502 -10.029789,23.157747 -2.905073,3.740474 -7.70774,8.15907 -11.752598,10.812739 -6.283078,4.122075 -13.449837,6.826603 -20.766234,7.836576 -1.953936,0.269728 -8.607694,0.484832 -10.250377,0.331379 l 3e-5,0 z m 7.965462,-10.936824 c 1.901713,-0.144139 3.890451,-0.342602 4.419418,-0.441026 2.638852,-0.491013 8.395804,-2.821648 11.868446,-4.804801 2.202084,-1.257567 2.885978,-1.874652 2.706014,-2.441668 C 73.054609,80.470052 60.967316,68.22186 35.639783,42.84358 L 19.105442,26.276114 18.685403,26.668513 c -1.788868,1.671153 -5.493504,9.300821 -6.628164,13.650652 -0.635835,2.437533 -0.829761,4.709859 -0.829761,9.722718 0,5.288572 0.195815,7.29026 0.979528,10.01309 3.263907,11.339698 10.249827,19.838908 20.533125,24.981011 3.389651,1.694976 6.978636,2.911394 10.395541,3.523368 1.891491,0.33877 6.740469,0.347706 11.059054,0.02038 z M 82.915164,71.166698 c 2.146426,-3.303796 4.724713,-9.647038 5.503202,-13.539283 0.264051,-1.320184 0.315009,-2.519322 0.314837,-7.408755 -1.77e-4,-6.233502 -0.103292,-7.406143 -0.908987,-10.341437 -3.273758,-11.92689 -12.940259,-22.548699 -24.094059,-26.475191 -4.504083,-1.58558 -7.786588,-2.167651 -12.917234,-2.29055 -7.747112,-0.185575 -11.721766,0.740023 -19.432901,4.525438 -1.21534,0.596613 -2.758282,1.490127 -3.428763,1.985587 l -1.219052,0.900836 17.482508,17.497694 c 9.615381,9.623731 21.924256,21.872355 27.353054,27.219164 9.770932,9.623361 9.87423,9.71821 10.23571,9.398508 0.200841,-0.177629 0.7011,-0.840034 1.111685,-1.472011 z"
   id="path3047"
   inkscape:connector-curvature="0" /></svg>